<svg xmlns="http://www.w3.org/2000/svg" xmlns:xlink="http://www.w3.org/1999/xlink" width="440.383" height="236.882" viewBox="0 0 440.383 236.882">
  <defs>
    <filter id="Rectangle_2621" x="0" y="0" width="404.903" height="236.882" filterUnits="userSpaceOnUse">
      <feOffset dy="3" input="SourceAlpha"/>
      <feGaussianBlur stdDeviation="30" result="blur"/>
      <feFlood flood-opacity="0.078"/>
      <feComposite operator="in" in2="blur"/>
      <feComposite in="SourceGraphic"/>
    </filter>
    <clipPath id="clip-path">
      <path id="Path_2969" data-name="Path 2969" d="M2.138,1307.933a7.214,7.214,0,1,1,7.214,7.214,7.223,7.223,0,0,1-7.214-7.214m-2.138,0a9.352,9.352,0,1,0,9.352-9.352A9.362,9.362,0,0,0,0,1307.933" transform="translate(0 -1298.581)" fill="#27d38e"/>
    </clipPath>
  </defs>
  <g id="Group_6522" data-name="Group 6522" transform="translate(2876 -2963.989)">
    <g id="Group_6079" data-name="Group 6079" transform="translate(-2786 3050.989)">
      <g transform="matrix(1, 0, 0, 1, -90, -87)" filter="url(#Rectangle_2621)">
        <rect id="Rectangle_2621-2" data-name="Rectangle 2621" width="224.903" height="56.882" rx="10" transform="translate(90 87)" fill="#fff"/>
      </g>
      <text id="AI_ML_Models" data-name="AI/ML Models" transform="translate(33.254 34.752)" fill="#404040" font-size="20" font-family="Figtree" font-weight="600"><tspan x="0" y="0">AI/ML Models</tspan></text>
      <path id="Path_3091" data-name="Path 3091" d="M0,0A7,7,0,0,1,7,7V26.253a7,7,0,0,1-7,7Z" transform="translate(0 11.376)" fill="#27d38e"/>
    </g>
    <path id="Path_2951" data-name="Path 2951" d="M229.794,1375.192l-29.815-29.815H94.689v-2.137H200.864l30.441,30.441Z" transform="translate(-2666.923 1733.688)" fill="#27d38e"/>
    <g id="Group_6119" data-name="Group 6119" transform="translate(-2589.101 3068.993)">
      <g id="Group_6118" data-name="Group 6118" clip-path="url(#clip-path)">
        <rect id="Rectangle_2743" data-name="Rectangle 2743" width="18.704" height="18.703" fill="#27d38e"/>
      </g>
    </g>
  </g>
</svg>
