<svg id="Group_6452" data-name="Group 6452" xmlns="http://www.w3.org/2000/svg" width="60" height="60" viewBox="0 0 60 60">
  <path id="Path_3097" data-name="Path 3097" d="M57,27a3,3,0,0,0-2.816,2H48V25h6a1,1,0,0,0,0-2H48V19h7a2,2,0,0,0,2-2V14.816a3,3,0,1,0-2,0V17H48V16a4,4,0,0,0-4-4H43V5h2.184a3,3,0,1,0,0-2H43a2,2,0,0,0-2,2v7H37V6a1,1,0,0,0-2,0v6H31V5.816a3,3,0,1,0-2,0V12H25V6a1,1,0,0,0-2,0v6H19V5a2,2,0,0,0-2-2H14.816a3,3,0,1,0,0,2H17v7H16a4,4,0,0,0-4,4v1H5V14.816a3,3,0,1,0-2,0V17a2,2,0,0,0,2,2h7v4H6a1,1,0,0,0,0,2h6v4H5.816a3,3,0,1,0,0,2H12v4H6a1,1,0,0,0,0,2h6v4H5a2,2,0,0,0-2,2v2.184a3,3,0,1,0,2,0V43h7v1a4,4,0,0,0,4,4h1v7H14.816a3,3,0,1,0,0,2H17a2,2,0,0,0,2-2V48h4v6a1,1,0,0,0,2,0V48h4v6.184a3,3,0,1,0,2,0V48h4v6a1,1,0,0,0,2,0V48h4v7a2,2,0,0,0,2,2h2.184a3,3,0,1,0,0-2H43V48h1a4,4,0,0,0,4-4V43h7v2.184a3,3,0,1,0,2,0V43a2,2,0,0,0-2-2H48V37h6a1,1,0,0,0,0-2H48V31h6.184A2.995,2.995,0,1,0,57,27ZM56,11a1,1,0,1,1-1,1A1,1,0,0,1,56,11ZM48,3a1,1,0,1,1-1,1A1,1,0,0,1,48,3ZM30,2a1,1,0,1,1-1,1A1,1,0,0,1,30,2ZM12,5a1,1,0,1,1,1-1A1,1,0,0,1,12,5ZM4,11a1,1,0,1,1-1,1A1,1,0,0,1,4,11ZM3,31a1,1,0,1,1,1-1A1,1,0,0,1,3,31ZM4,49a1,1,0,1,1,1-1A1,1,0,0,1,4,49Zm8,8a1,1,0,1,1,1-1A1,1,0,0,1,12,57Zm18,1a1,1,0,1,1,1-1A1,1,0,0,1,30,58Zm18-3a1,1,0,1,1-1,1A1,1,0,0,1,48,55Zm8-6a1,1,0,1,1,1-1A1,1,0,0,1,56,49ZM46,44a2,2,0,0,1-2,2H16a2,2,0,0,1-2-2V16a2,2,0,0,1,2-2H44a2,2,0,0,1,2,2ZM57,31a1,1,0,1,1,1-1A1,1,0,0,1,57,31Z" fill="#27d38e"/>
  <path id="Path_3098" data-name="Path 3098" d="M25.511,22.21a1.549,1.549,0,0,0-3.023,0L19.023,37.783a1,1,0,0,0,1.953.433L22.137,33h3.725l1.161,5.217A1,1,0,0,0,28,39a1.077,1.077,0,0,0,.218-.023,1,1,0,0,0,.76-1.193ZM22.583,31,24,24.628,25.419,31H22.584Z" fill="#27d38e"/>
  <path id="Path_3099" data-name="Path 3099" d="M38,23a1,1,0,0,0,0-2H32a1,1,0,0,0,0,2h2V37H32a1,1,0,0,0,0,2h6a1,1,0,0,0,0-2H36V23Z" fill="#27d38e"/>
</svg>
