<svg xmlns="http://www.w3.org/2000/svg" width="71.067" height="71.067" viewBox="0 0 71.067 71.067">
  <g id="Group_4689" data-name="Group 4689" transform="translate(0 0)">
    <path id="Path_1939" data-name="Path 1939" d="M7.222,49.055A31.079,31.079,0,0,1,4.164,35.533,31.377,31.377,0,0,1,54.338,10.418l-5.195.684a2.082,2.082,0,0,0,.543,4.128l9.772-1.286a2.082,2.082,0,0,0,1.792-2.336L59.965,1.837A2.082,2.082,0,0,0,57.629.044h0A2.082,2.082,0,0,0,55.836,2.38l.579,4.4A35.538,35.538,0,0,0,0,35.533,35.209,35.209,0,0,0,3.466,50.853a2.082,2.082,0,1,0,3.756-1.8Z" fill="#f69e29"/>
    <path id="Path_1940" data-name="Path 1940" d="M128.389,138.287a2.082,2.082,0,0,0-3.756,1.8,31.078,31.078,0,0,1,3.058,13.522,31.374,31.374,0,0,1-50.172,25.115l5.192-.683a2.082,2.082,0,0,0-.543-4.128L72.4,175.2a2.082,2.082,0,0,0-1.792,2.336L71.89,187.3a2.082,2.082,0,0,0,2.336,1.793h0a2.082,2.082,0,0,0,1.792-2.336l-.579-4.4a35.542,35.542,0,0,0,52.949-44.076Z" transform="translate(-60.788 -118.073)" fill="#f69e29"/>
    <path id="Path_1941" data-name="Path 1941" d="M142.917,119.372l.976-.564a2.082,2.082,0,0,0,.762-2.844L139.8,107.55a2.082,2.082,0,0,0-2.844-.762l-1.04.6a3.55,3.55,0,0,1-3.623-.022,3.658,3.658,0,0,1-1.756-3.158v-1.127A2.082,2.082,0,0,0,128.452,101h-9.716a2.082,2.082,0,0,0-2.082,2.082v1.127a3.658,3.658,0,0,1-1.756,3.157,3.55,3.55,0,0,1-3.623.022l-1.04-.6a2.082,2.082,0,0,0-2.844.762l-4.858,8.414a2.082,2.082,0,0,0,.762,2.844l.976.564a3.658,3.658,0,0,1,1.856,3.1,3.55,3.55,0,0,1-1.793,3.148l-1.04.6a2.082,2.082,0,0,0-.762,2.844l4.858,8.414a2.082,2.082,0,0,0,2.844.762l1.04-.6a3.55,3.55,0,0,1,3.623.022,3.659,3.659,0,0,1,1.756,3.158v1.127a2.082,2.082,0,0,0,2.082,2.082h9.716a2.082,2.082,0,0,0,2.082-2.082v-1.127a3.657,3.657,0,0,1,1.756-3.157,3.55,3.55,0,0,1,3.623-.022l1.04.6a2.082,2.082,0,0,0,2.844-.762l4.858-8.414a2.082,2.082,0,0,0-.762-2.844l-1.04-.6a3.55,3.55,0,0,1-1.793-3.148,3.657,3.657,0,0,1,1.856-3.1Zm-2.885,9.371-2.824,4.892a7.754,7.754,0,0,0-10.789,6.229H120.77a7.754,7.754,0,0,0-10.789-6.229l-2.824-4.892a7.754,7.754,0,0,0,0-12.458l2.824-4.892a7.754,7.754,0,0,0,10.789-6.229h5.649a7.754,7.754,0,0,0,10.789,6.229l2.824,4.892a7.754,7.754,0,0,0,0,12.458Z" transform="translate(-88.061 -86.981)" fill="#f69e29"/>
    <path id="Path_1942" data-name="Path 1942" d="M200.022,191a9.022,9.022,0,1,0,9.022,9.022A9.032,9.032,0,0,0,200.022,191Zm0,13.88a4.858,4.858,0,1,1,4.858-4.858A4.864,4.864,0,0,1,200.022,204.88Z" transform="translate(-164.489 -164.489)" fill="#f69e29"/>
  </g>
</svg>
