<svg xmlns="http://www.w3.org/2000/svg" xmlns:xlink="http://www.w3.org/1999/xlink" width="468.934" height="236.882" viewBox="0 0 468.934 236.882">
  <defs>
    <filter id="Rectangle_2621" x="31.652" y="0" width="437.282" height="236.882" filterUnits="userSpaceOnUse">
      <feOffset dy="3" input="SourceAlpha"/>
      <feGaussianBlur stdDeviation="30" result="blur"/>
      <feFlood flood-opacity="0.078"/>
      <feComposite operator="in" in2="blur"/>
      <feComposite in="SourceGraphic"/>
    </filter>
    <linearGradient id="linear-gradient" x1="0.5" x2="0.5" y2="1" gradientUnits="objectBoundingBox">
      <stop offset="0" stop-color="#ffc16f"/>
      <stop offset="1" stop-color="#f69e29"/>
    </linearGradient>
  </defs>
  <g id="Group_6526" data-name="Group 6526" transform="translate(2155.934 -2874.864)">
    <g id="Group_6524" data-name="Group 6524">
      <g id="Group_6081" data-name="Group 6081" transform="translate(-1777 3018.746) rotate(180)">
        <g transform="matrix(-1, 0, 0, -1, 378.93, 143.88)" filter="url(#Rectangle_2621)">
          <rect id="Rectangle_2621-2" data-name="Rectangle 2621" width="257.282" height="56.882" rx="10" transform="translate(378.93 143.88) rotate(180)" fill="#fff"/>
        </g>
        <path id="Rectangle_2622" data-name="Rectangle 2622" d="M0,0H0A7,7,0,0,1,7,7V26.253a7,7,0,0,1-7,7H0a0,0,0,0,1,0,0V0A0,0,0,0,1,0,0Z" transform="translate(0 11.376)" fill="url(#linear-gradient)"/>
      </g>
      <text id="Automation_Layer" data-name="Automation Layer" transform="translate(-1987.901 2996.48)" fill="#272727" font-size="20" font-family="Figtree" font-weight="600"><tspan x="0" y="0">Automation Layer</tspan></text>
      <path id="Path_2949" data-name="Path 2949" d="M2433.242,891.586l-1.511-1.511,30.441-30.441h106.175v2.138h-105.29Z" transform="translate(-4587.665 2131.272)" fill="url(#linear-gradient)"/>
      <path id="Path_2971" data-name="Path 2971" d="M3197.848,831.838a9.352,9.352,0,1,1,9.352-9.352,9.362,9.362,0,0,1-9.352,9.352m0-16.566a7.214,7.214,0,1,0,7.214,7.214,7.222,7.222,0,0,0-7.214-7.214" transform="translate(-5209.627 2169.507)" fill="url(#linear-gradient)"/>
    </g>
  </g>
</svg>
