<svg xmlns="http://www.w3.org/2000/svg" width="48.267" height="54.917" viewBox="0 0 48.267 54.917">
  <g id="Group_6447" data-name="Group 6447" transform="translate(0)">
    <path id="Path_3093" data-name="Path 3093" d="M40.512,2A60.832,60.832,0,0,0,24.134,0,60.832,60.832,0,0,0,7.755,2C4.528,2.946,0,4.793,0,8.152V46.765c0,3.36,4.531,5.206,7.755,6.149a60.832,60.832,0,0,0,16.378,2,60.832,60.832,0,0,0,16.378-2c3.227-.943,7.755-2.79,7.755-6.149V8.152c0-3.358-4.525-5.2-7.755-6.149ZM24.134,3.218A57.573,57.573,0,0,1,39.609,5.092c4.44,1.3,5.44,2.679,5.44,3.06s-1,1.737-5.43,3a58.93,58.93,0,0,1-15.485,1.823c-13.5,0-20.916-3.3-20.916-4.827,0-1.486,7.261-4.934,20.916-4.934ZM39.609,49.825A57.573,57.573,0,0,1,24.134,51.7c-13.579,0-20.916-3.43-20.916-4.934V44.618c3.677,2.1,9.966,3.229,15.989,3.6l.2-3.211A47.888,47.888,0,0,1,7.195,42.874c-3.246-1.138-3.977-2.246-3.977-2.544V38.193c5.234,2.956,14.866,3.746,20.916,3.746,6.135,0,15.719-.81,20.916-3.746v8.572c0,.381-1,1.762-5.44,3.06Zm-15.476-11.1c-13.5,0-20.916-3.3-20.916-4.827V31.747c3.677,2.1,9.966,3.229,15.989,3.6l.2-3.211c-11.162-.7-16.189-3.528-16.189-4.682V25.322c5.236,2.957,14.871,3.746,20.916,3.746s15.681-.789,20.916-3.746v8.572c0,1.462-7.176,4.827-20.916,4.827Zm0-12.871c-13.5,0-20.916-3.3-20.916-4.827V18.876c3.677,2.1,9.966,3.229,15.989,3.6l.2-3.212c-11.162-.7-16.189-3.528-16.189-4.682V12.45C8.453,15.408,18.089,16.2,24.133,16.2A62.171,62.171,0,0,0,40.5,14.249a21.135,21.135,0,0,0,4.546-1.8v8.572c0,1.462-7.176,4.827-20.916,4.827Zm0,0" fill="#ef6a77"/>
    <path id="Path_3094" data-name="Path 3094" d="M210,181h3.218v3.218H210Zm0,0" transform="translate(-187.475 -161.586)" fill="#ef6a77"/>
    <path id="Path_3095" data-name="Path 3095" d="M210,301h3.218v3.218H210Zm0,0" transform="translate(-187.475 -268.715)" fill="#ef6a77"/>
    <path id="Path_3096" data-name="Path 3096" d="M210,421h3.218v3.218H210Zm0,0" transform="translate(-187.475 -375.844)" fill="#ef6a77"/>
  </g>
</svg>
