<svg xmlns="http://www.w3.org/2000/svg" xmlns:xlink="http://www.w3.org/1999/xlink" width="468.52" height="236.882" viewBox="0 0 468.52 236.882">
  <defs>
    <filter id="Rectangle_2621" x="31.239" y="0" width="437.282" height="236.882" filterUnits="userSpaceOnUse">
      <feOffset dy="3" input="SourceAlpha"/>
      <feGaussianBlur stdDeviation="30" result="blur"/>
      <feFlood flood-opacity="0.078"/>
      <feComposite operator="in" in2="blur"/>
      <feComposite in="SourceGraphic"/>
    </filter>
    <linearGradient id="linear-gradient" x1="0.5" x2="0.5" y2="1" gradientUnits="objectBoundingBox">
      <stop offset="0" stop-color="#f68c96"/>
      <stop offset="1" stop-color="#ef6a77"/>
    </linearGradient>
  </defs>
  <g id="Group_6527" data-name="Group 6527" transform="translate(2155.52 -3100.299)">
    <g id="Group_6525" data-name="Group 6525">
      <g id="Group_6523" data-name="Group 6523">
        <g id="Group_6080" data-name="Group 6080" transform="translate(-1777 3244.181) rotate(180)">
          <g transform="matrix(-1, 0, 0, -1, 378.52, 143.88)" filter="url(#Rectangle_2621)">
            <rect id="Rectangle_2621-2" data-name="Rectangle 2621" width="257.282" height="56.882" rx="10" transform="translate(378.52 143.88) rotate(180)" fill="#fff"/>
          </g>
          <path id="Rectangle_2622" data-name="Rectangle 2622" d="M0,0H0A7,7,0,0,1,7,7V26.253a7,7,0,0,1-7,7H0a0,0,0,0,1,0,0V0A0,0,0,0,1,0,0Z" transform="translate(0 11.376)" fill="url(#linear-gradient)"/>
        </g>
        <text id="Data_Management" data-name="Data Management" transform="translate(-1987.901 3222.064)" fill="#272727" font-size="20" font-family="Figtree" font-weight="600"><tspan x="0" y="0">Data Management</tspan></text>
        <path id="Path_2950" data-name="Path 2950" d="M2570.67,1978.581H2464.494l-30.441-30.441,1.511-1.511,29.815,29.815h105.29Z" transform="translate(-4589.574 1237.627)" fill="url(#linear-gradient)"/>
        <path id="Path_2970" data-name="Path 2970" d="M3197.848,2086.208a9.352,9.352,0,1,1,9.352-9.352,9.362,9.362,0,0,1-9.352,9.352m0-16.566a7.214,7.214,0,1,0,7.214,7.214,7.222,7.222,0,0,0-7.214-7.214" transform="translate(-5209.627 1138.266)" fill="url(#linear-gradient)"/>
      </g>
    </g>
  </g>
</svg>
