<svg xmlns="http://www.w3.org/2000/svg" xmlns:xlink="http://www.w3.org/1999/xlink" width="153.01" height="40.5" viewBox="0 0 153.01 40.5">
  <defs>
    <linearGradient id="linear-gradient" x1="0.71" y1="0.18" x2="0.139" y2="0.724" gradientUnits="objectBoundingBox">
      <stop offset="0" stop-color="#f0f"/>
      <stop offset="1" stop-color="blue"/>
    </linearGradient>
  </defs>
  <g id="Group_8394" data-name="Group 8394" transform="translate(-139 -19.5)">
    <text id="Ospyn_AI" data-name="Ospyn AI" transform="translate(139 52)" fill="#272727" font-size="31" font-family="Figtree" font-weight="700"><tspan x="0" y="0">Ospyn </tspan><tspan y="0" fill="#493aca">AI</tspan></text>
    <path id="sparkling" d="M8,13.5a1.012,1.012,0,0,1-.9-.56L5.6,9.9,2.56,8.4a1,1,0,0,1,0-1.8L5.6,5.1,7.1,2.06a1,1,0,0,1,1.8,0L10.4,5.1l3.04,1.5a1,1,0,0,1,0,1.8L10.4,9.9,8.9,12.94a1.012,1.012,0,0,1-.9.56Zm-2.74-6,1.53.75a.981.981,0,0,1,.45.45L8,10.23,8.75,8.7a.981.981,0,0,1,.45-.45l1.53-.75L9.2,6.75a.981.981,0,0,1-.45-.45L8,4.77,7.24,6.3a.981.981,0,0,1-.45.45ZM11,22.5a1.012,1.012,0,0,1-.9-.56L9.09,19.9,7.05,18.89a1,1,0,0,1,0-1.8l2.04-1.01,1.01-2.04a1,1,0,0,1,1.8,0l1.01,2.04,2.04,1.01a1,1,0,0,1,0,1.8L12.91,19.9,11.9,21.94a1.012,1.012,0,0,1-.9.56ZM9.76,18l.53.26a.981.981,0,0,1,.45.45l.26.53.26-.53a.981.981,0,0,1,.45-.45l.53-.26-.53-.26a.981.981,0,0,1-.45-.45L11,16.76l-.26.53a.981.981,0,0,1-.45.45Zm7.74-2a1.012,1.012,0,0,1-.9-.56L15.59,13.4l-2.04-1.01a1,1,0,0,1,0-1.8l2.04-1.01L16.6,7.54a1,1,0,0,1,1.8,0l1.01,2.04,2.04,1.01a1,1,0,0,1,0,1.8L19.41,13.4,18.4,15.44A1.012,1.012,0,0,1,17.5,16Zm-1.24-4.5.53.26a.981.981,0,0,1,.45.45l.26.53.26-.53a.981.981,0,0,1,.45-.45l.53-.26-.53-.26a.981.981,0,0,1-.45-.45l-.26-.53-.26.53a.981.981,0,0,1-.45.45Z" transform="translate(270 18)" fill="url(#linear-gradient)"/>
  </g>
</svg>
